# xmcd CD Database Entry
#
# Track frame offsets:
# 150
# 19288
# 50573
# 75708
# 104969
# 137753
# 159986
# 172059
# 189896
# 234636
#
# Disc length: 3515 seconds
#
# Revision: 1
# Processed by: cddbd v1.4PL0 Copyright (c) Steve Scherf et al.
# Submitted via: tcd 2.0b
#
DISCID=860db90a
DTITLE=Bop (harvey) - Bread and Circuses
DYEAR=1900
DGENRE=
TTITLE0=Bread and Circuses
TTITLE1=Lazarus
TTITLE2=Dues Due to Dudu
TTITLE3=Dubmaster
TTITLE4=Vibe
TTITLE5=Can't Blame the Youth
TTITLE6=Man in Disguise
TTITLE7=Poor Judge Bork
TTITLE8=Vibe ( dub version )
TTITLE9=data
EXTD=
EXTT0=
EXTT1=
EXTT2=
EXTT3=
EXTT4=
EXTT5=
EXTT6=
EXTT7=
EXTT8=
EXTT9=
PLAYORDER=
